<svg width="69" height="69" viewBox="0 0 69 69" fill="none" xmlns="http://www.w3.org/2000/svg">
<path d="M67.1906 50.639L57.5412 41.0098C54.095 37.5709 48.2364 38.9466 46.8579 43.4171C45.8241 46.5123 42.3778 48.2318 39.2762 47.5439C32.3838 45.8244 23.079 36.8831 21.3559 29.6612C20.322 26.566 22.3898 23.127 25.4914 22.0954C29.9715 20.7199 31.3499 14.8736 27.9037 11.4346L18.2543 1.80546C15.4973 -0.601822 11.3619 -0.601822 8.94951 1.80546L2.4017 8.33953C-4.14612 15.2175 3.09094 33.4441 19.2882 49.6073C35.4854 65.7705 53.7504 73.3364 60.6428 66.4583L67.1906 59.9242C69.6031 57.173 69.6031 53.0463 67.1906 50.639Z" fill="#313131"/>
</svg>
