<svg width="44" height="69" viewBox="0 0 44 69" fill="none" xmlns="http://www.w3.org/2000/svg">
<path d="M21.7089 0H21.6104C9.69421 0 0 9.69097 0 21.6026C0 29.4106 3.55592 39.7154 10.5689 52.2311C15.7684 61.5098 21.0407 68.6162 21.0935 68.6869C21.2402 68.884 21.4716 69.0002 21.7166 69.0002C21.7236 69.0002 21.7307 69.0002 21.7377 68.9998C21.9906 68.9929 22.224 68.8634 22.3643 68.6527C22.4163 68.574 27.651 60.6689 32.8151 51.0001C39.7854 37.9501 43.3196 28.059 43.3196 21.6026C43.3191 9.6908 33.6247 0 21.7089 0ZM31.684 22.1305C31.684 27.6581 27.1871 32.1548 21.6595 32.1548C16.132 32.1548 11.6351 27.658 11.6351 22.1305C11.6351 16.6031 16.132 12.1062 21.6595 12.1062C27.1871 12.1062 31.684 16.6031 31.684 22.1305Z" fill="#313131"/>
</svg>
