<svg width="28" height="28" viewBox="0 0 28 28" fill="none" xmlns="http://www.w3.org/2000/svg">
<path d="M27.3412 10.8119L25.1891 10.3441C25.002 9.77112 24.7702 9.21228 24.4966 8.67395L25.688 6.82077C25.9007 6.48965 25.8539 6.05493 25.5758 5.77679L22.2232 2.42419C21.9451 2.14606 21.5103 2.09927 21.1792 2.31204L19.326 3.50342C18.7877 3.22977 18.2289 2.99799 17.6559 2.81085L17.1881 0.658813C17.1046 0.274292 16.7641 0 16.3706 0H11.6294C11.2359 0 10.8954 0.274292 10.8119 0.658813L10.3441 2.81085C9.77112 2.99799 9.21228 3.22977 8.67395 3.50342L6.82077 2.31204C6.48965 2.09927 6.05493 2.14606 5.77679 2.42419L2.42419 5.77679C2.14606 6.05493 2.09927 6.48965 2.31204 6.82077L3.50342 8.67395C3.22977 9.21228 2.99799 9.77112 2.81085 10.3441L0.658813 10.8119C0.274292 10.8956 0 11.2359 0 11.6294V16.3706C0 16.7641 0.274292 17.1044 0.658813 17.1881L2.81085 17.6559C2.99799 18.2289 3.22977 18.7877 3.50342 19.326L2.31204 21.1792C2.09927 21.5103 2.14606 21.9451 2.42419 22.2232L5.77679 25.5758C6.05493 25.8539 6.48965 25.9007 6.82077 25.688L8.67395 24.4966C9.21228 24.7702 9.77112 25.002 10.3441 25.1891L10.8119 27.3412C10.8954 27.7257 11.2359 28 11.6294 28H16.3706C16.7641 28 17.1046 27.7257 17.1881 27.3412L17.6559 25.1891C18.2289 25.002 18.7877 24.7702 19.326 24.4966L21.1792 25.688C21.5103 25.9007 21.9451 25.8542 22.2232 25.5758L25.5758 22.2232C25.8539 21.9451 25.9007 21.5103 25.688 21.1792L24.4966 19.326C24.7702 18.7877 25.002 18.2289 25.1891 17.6559L27.3412 17.1881C27.7257 17.1044 28 16.7641 28 16.3706V11.6294C28 11.2359 27.7257 10.8956 27.3412 10.8119ZM19.0199 14C19.0199 16.7679 16.7679 19.0199 14 19.0199C11.2321 19.0199 8.98007 16.7679 8.98007 14C8.98007 11.2321 11.2321 8.98007 14 8.98007C16.7679 8.98007 19.0199 11.2321 19.0199 14Z" fill="#6D010C"/>
</svg>
