<svg width="32" height="28" viewBox="0 0 32 28" fill="none" xmlns="http://www.w3.org/2000/svg">
<path d="M16.7304 25.9507C15.8902 27.0911 14.5817 27.792 13.167 27.8617C11.7522 27.9321 10.382 27.3619 9.43406 26.3091L0.939144 16.882C-0.410965 15.3847 -0.291035 13.0766 1.20629 11.7264C2.70506 10.3763 5.01173 10.497 6.36184 11.995L12.372 18.6651C12.461 18.7642 12.5903 18.8174 12.7232 18.8109C12.8567 18.8045 12.9788 18.7377 13.0585 18.6314L25.412 1.8764C26.6077 0.253396 28.8929 -0.0920305 30.5166 1.1044C32.1389 2.30082 32.4836 4.58595 31.2871 6.20824L16.7304 25.9507Z" fill="#6D010C"/>
</svg>
