<svg width="30" height="28" viewBox="0 0 30 28" fill="none" xmlns="http://www.w3.org/2000/svg">
<path d="M29.0863 10.551C28.9859 10.2421 28.7189 10.0169 28.3975 9.97024L19.3676 8.65806L15.3293 0.475662C15.1856 0.184382 14.8889 0 14.5641 0C14.2392 0 13.9426 0.184382 13.7989 0.475662L9.7603 8.65806L0.730638 9.97024C0.409263 10.0169 0.142162 10.2421 0.041807 10.551C-0.0586048 10.86 0.0251381 11.1991 0.257764 11.4258L6.79153 17.7949L5.24934 26.7883C5.19438 27.1085 5.32603 27.432 5.58881 27.623C5.73746 27.731 5.91354 27.7859 6.09047 27.7859C6.22632 27.7859 6.36263 27.7535 6.48745 27.6879L14.564 23.4417L22.6403 27.6878C22.9278 27.839 23.2762 27.8138 23.539 27.6229C23.8017 27.432 23.9334 27.1084 23.8785 26.7882L22.3358 17.7949L28.8703 11.4257C29.1029 11.1991 29.1867 10.86 29.0863 10.551Z" fill="#6D010C"/>
</svg>
