<svg width="28" height="28" viewBox="0 0 28 28" fill="none" xmlns="http://www.w3.org/2000/svg">
<path d="M23.8995 4.10047C21.2553 1.45622 17.7395 0 14 0C10.2605 0 6.74472 1.45622 4.10047 4.10047C1.45622 6.74472 0 10.2605 0 14C0 17.7395 1.45627 21.2552 4.10047 23.8995C6.74466 26.5438 10.2605 28 14 28C17.7395 28 21.2553 26.5438 23.8995 23.8995C26.5438 21.2553 28 17.7395 28 14C28 10.2605 26.5437 6.74477 23.8995 4.10047ZM14 13.125C16.1711 13.125 17.9375 14.8914 17.9375 17.0625C17.9375 18.8605 16.7258 20.3798 15.0764 20.8492C14.9579 20.883 14.875 20.9896 14.875 21.1128V21.8503C14.875 22.3215 14.5129 22.7269 14.0423 22.749C13.5398 22.7726 13.125 22.3723 13.125 21.875V21.1126C13.125 20.9897 13.0426 20.8831 12.9245 20.8494C11.2821 20.3824 10.0735 18.8745 10.0626 17.0869C10.0597 16.6098 10.4348 16.2016 10.9118 16.1879C11.4068 16.1737 11.8125 16.5707 11.8125 17.0625C11.8125 18.3204 12.8798 19.3338 14.1564 19.2445C15.2339 19.1692 16.1068 18.2963 16.182 17.2187C16.2712 15.9422 15.2579 14.875 14 14.875C11.8289 14.875 10.0625 13.1086 10.0625 10.9375C10.0625 9.13954 11.2742 7.62021 12.9236 7.15077C13.0421 7.11703 13.125 7.01045 13.125 6.88723V6.14972C13.125 5.67853 13.4871 5.27313 13.9577 5.25098C14.4602 5.22736 14.875 5.62773 14.875 6.125V6.8874C14.875 7.01028 14.9574 7.11692 15.0755 7.15056C16.7179 7.61759 17.9265 9.12548 17.9374 10.9131C17.9403 11.3902 17.5652 11.7984 17.0882 11.8121C16.5932 11.8263 16.1875 11.4293 16.1875 10.9375C16.1875 9.67958 15.1202 8.66622 13.8436 8.75547C12.7661 8.83077 11.8932 9.7037 11.818 10.7813C11.7288 12.0578 12.7421 13.125 14 13.125Z" fill="#6D010C"/>
</svg>
